<?xml version="1.0" encoding="UTF-8" standalone="no"?>
<!-- Created with Inkscape (http://www.inkscape.org/) -->

<svg
   xmlns:dc="http://purl.org/dc/elements/1.1/"
   xmlns:cc="http://creativecommons.org/ns#"
   xmlns:rdf="http://www.w3.org/1999/02/22-rdf-syntax-ns#"
   xmlns:svg="http://www.w3.org/2000/svg"
   xmlns="http://www.w3.org/2000/svg"
   xmlns:sodipodi="http://sodipodi.sourceforge.net/DTD/sodipodi-0.dtd"
   xmlns:inkscape="http://www.inkscape.org/namespaces/inkscape"
   id="svg2"
   version="1.1"
   inkscape:version="0.91 r13725"
   viewBox="0 0 710.38904 710.1402"
   sodipodi:docname="clash-logo.svg">
  <metadata
     id="metadata8">
    <rdf:RDF>
      <cc:Work
         rdf:about="">
        <dc:format>image/svg+xml</dc:format>
        <dc:type
           rdf:resource="http://purl.org/dc/dcmitype/StillImage" />
        <dc:title />
      </cc:Work>
    </rdf:RDF>
  </metadata>
  <defs
     id="defs6" />
  <sodipodi:namedview
     pagecolor="#ffffff"
     bordercolor="#666666"
     borderopacity="1"
     objecttolerance="10"
     gridtolerance="10"
     guidetolerance="10"
     inkscape:pageopacity="0"
     inkscape:pageshadow="2"
     inkscape:window-width="1366"
     inkscape:window-height="708"
     id="namedview4"
     showgrid="false"
     inkscape:zoom="0.63143813"
     inkscape:cx="558.98522"
     inkscape:cy="219.22938"
     inkscape:window-x="0"
     inkscape:window-y="31"
     inkscape:window-maximized="1"
     inkscape:current-layer="svg2"
     fit-margin-top="0"
     fit-margin-left="0"
     fit-margin-right="0"
     fit-margin-bottom="0" />
  <path
     style="fill:#000000;fill-opacity:0.34065935"
     d="m 119.90897,707.56757 c -8.21576,-5.00921 -9.04119,-8.0144 -9.0464,-32.93627 -0.005,-22.06428 -0.0349,-22.31243 -2.81154,-23.03854 -6.42734,-1.68079 -22.408897,-10.71903 -28.267637,-15.98654 -7.76951,-6.98546 -15.50047,-18.37675 -19.01677,-28.02055 l -2.6583,-7.29064 -22.910549,-0.4296 c -25.03972,-0.46953 -26.2423398,-0.80506 -32.3876298,-9.03601 -3.66413996,-4.90771 -3.70708996,-21.95371 -0.0709,-28.12722 4.60054,-7.81073 8.5094398,-8.89138 32.1616198,-8.89138 l 20.956999,0 0,-13.64675 0,-13.64674 -21.786879,-0.41576 c -23.78903,-0.45396 -25.1589998,-0.84934 -31.2608798,-9.02215 -3.66413996,-4.90771 -3.70708996,-21.95371 -0.0709,-28.12722 4.60054,-7.81073 8.5094398,-8.89138 32.1616198,-8.89138 l 20.956999,0 0,-13.64675 0,-13.64674 -21.786879,-0.41576 c -19.68257,-0.3756 -22.11993,-0.66467 -25.2352598,-2.99299 -7.19987,-5.381 -8.60724996,-8.62387 -8.55045996,-19.70192 0.10379,-20.24643 4.68646996,-23.27706 35.26009976,-23.31839 l 20.312499,-0.0274 0,-13.64675 0,-13.64674 -21.786879,-0.41576 c -23.78903,-0.45396 -25.1589998,-0.84934 -31.2608798,-9.02215 -3.86731,-5.17984 -3.70930996,-22.04482 0.26658,-28.45497 4.51278,-7.27577 9.4464598,-8.56363 32.8064698,-8.56363 l 19.974709,0 0,-13.75 0,-13.75 -20.230349,0 c -22.9471,0 -28.3554498,-1.4844 -32.9219498,-9.03595 -3.48626996,-5.76517 -3.46665996,-22.31086 0.0334,-28.1781 4.49984,-7.54321 9.9330198,-9.03595 32.8885498,-9.03595 l 20.230349,0 0,-13.75 0,-13.75 -19.974709,0 c -23.35569,0 -28.2891198,-1.28751 -32.8137798,-8.56362 -3.96376996,-6.37413 -4.10716,-23.30115 -0.24125,-28.47912 6.08661,-8.15235 7.4576898,-8.54625 31.2418898,-8.97533 l 21.787849,-0.39308 0,-13.66942 0,-13.66943 -20.312499,-0.0275 C 4.9309842,157.49197 0.24204424,154.3901 0.25984424,134.19085 c 0.01,-11.09019 1.42232996,-14.33139 8.57577996,-19.67779 3.1344598,-2.34265 5.5331698,-2.61455 26.3533098,-2.98719 l 22.904979,-0.4099 2.62389,-7.19628 c 7.27559,-19.954048 24.55272,-36.615435 44.753957,-43.159023 l 6.48895,-2.101902 0.38605,-24.281068 0.38605,-24.281068 4.69962,-4.6966856 c 4.5193,-4.51647701 5.0774,-4.71384101 14.54573,-5.14382101 11.57322,-0.525568 17.81142,1.74381601 21.52255,7.82965801 2.07008,3.3946806 2.34832,6.5481826 2.35243,26.6625426 l 0.005,22.8125 14.92424,0 14.92424,0 0.38826,-23.732168 0.38826,-23.732166 4.69962,-4.6966156 c 4.51927,-4.51639001 5.07745,-4.71377201 14.54573,-5.14375101 11.65989,-0.529504 17.48204,1.62322901 21.35995,7.89782101 2.28373,3.6951486 2.5197,6.1995826 2.5197,26.7419216 l 0,22.664958 15,0 15,0 0,-22.207003 c 0,-19.120072 0.3175,-22.799021 2.28409,-26.4659166 3.34926,-6.245077 9.07979,-8.82708001 19.59091,-8.82708001 10.51113,0 16.24165,2.58200301 19.59092,8.82708001 1.96658,3.6668956 2.28408,7.3458446 2.28408,26.4659166 l 0,22.207003 15,0 15,0 0,-22.664958 c 0,-25.5190316 0.94855,-28.8776496 9.27112,-32.8269636 5.97533,-2.83548401 20.13416,-2.68314001 25.65181,0.276004 7.82721,4.197782 8.82707,7.9367756 8.82707,33.0089146 l 0,22.207003 15,0 15,0 0,-22.664958 c 0,-20.542339 0.23598,-23.046773 2.5197,-26.7419216 3.87792,-6.274592 9.70008,-8.42732501 21.35998,-7.89782101 9.4683,0.429979 10.0264,0.627361 14.5457,5.14375101 l 4.6996,4.6966156 0.3887,23.771176 0.3886,23.771178 14.6114,-0.35151 14.6113,-0.35151 0.625,-23.186185 c 0.6957,-25.8077096 1.3012,-27.8987346 9.1578,-31.6269656 5.4228,-2.57327801 19.6404,-2.75178301 24.3418,-0.305616 1.8565,0.965927 4.7817,3.259797 6.5004,5.097487 3.0731,3.2856916 3.1315,3.7352246 3.5137,27.0327766 l 0.3886,23.691523 14.6114,-0.35151 14.6113,-0.35151 0.625,-23.186185 c 0.6957,-25.8077096 1.3012,-27.8987346 9.1578,-31.6269656 6.345,-3.01089401 20.2814,-2.77550301 25.5412,0.431399 8.2733,5.044343 9.0411,7.9165436 9.0464,33.8409736 l 0,23.209223 6.5625,2.080751 c 15.3638,4.871356 32.6702,20.559593 40.4104,36.631973 2.3524,4.884638 4.2771,9.763498 4.2771,10.841918 0,1.69973 3.2332,2.01508 24.2869,2.36884 26.5339,0.44582 27.5677,0.71945 33.6872,8.91593 3.8349,5.13639 3.722,22.25957 -0.1883,28.55352 -4.5487,7.32103 -9.4003,8.56362 -33.4365,8.56362 l -20.5997,0 0,13.6711 0,13.67109 22.4128,0.39141 c 24.4464,0.42691 25.7604,0.7945 31.8114,8.89926 3.7113,4.97079 3.7587,22.94943 0.074,27.88553 -6.133,8.21505 -7.3918,8.57027 -31.885,8.99801 l -22.4128,0.39141 0,13.59219 0,13.59219 22.4127,0.39141 c 24.4535,0.42704 25.7591,0.79276 31.8226,8.91409 3.6585,4.90022 3.6585,23.0544 0,27.95462 -6.0635,8.12133 -7.3691,8.48705 -31.8226,8.91409 l -22.4127,0.39141 0,13.67109 0,13.6711 20.8553,0 c 23.6392,0 29.0069,1.44706 33.4845,9.02703 3.5178,5.95511 3.4531,23.31015 -0.1045,28.07528 -6.0589,8.11522 -7.3762,8.48512 -31.8234,8.93642 l -22.4119,0.41373 0,13.64877 0,13.64877 20.5997,0 c 23.9807,0 28.9026,1.25211 33.3763,8.49068 3.885,6.28601 4.0414,23.54591 0.2593,28.61163 -6.0589,8.11522 -7.3762,8.48512 -31.8234,8.93642 l -22.4119,0.41373 0,13.64877 0,13.64877 21.3736,0 c 24.2737,0 27.9464,0.95714 32.6067,8.49763 3.8807,6.27915 4.0346,23.54228 0.255,28.60468 -6.0589,8.11522 -7.3762,8.48512 -31.8234,8.93642 l -22.4119,0.41373 0,13.64877 0,13.64877 21.582,0 c 24.3382,0 28.1552,1.035 32.7912,8.89138 3.5715,6.0524 3.4801,23.36496 -0.149,28.22576 -6.0877,8.15384 -7.2485,8.46871 -32.9382,8.93542 l -23.5349,0.42758 -2.6591,7.29266 c -3.5754,9.80605 -11.3782,21.2139 -19.2476,28.14059 -6.7281,5.92212 -24.3928,15.58661 -28.4892,15.58661 -2.2208,0 -2.3555,1.30231 -2.3599,22.8125 -0.01,25.48468 -0.7978,28.41506 -9.0464,33.44425 -5.2485,3.20009 -20.3768,3.47521 -26.6778,0.48518 -8.279,-3.92864 -9.2711,-7.37464 -9.2711,-32.20197 l 0,-22.03996 -14.375,0 -14.375,0 -0.01,21.5625 c 0,24.10033 -0.8806,27.21548 -9.0464,32.19425 -5.2486,3.20009 -20.3768,3.47521 -26.6778,0.48518 -8.2787,-3.92864 -9.2708,-7.37464 -9.2708,-32.20197 l 0,-22.03996 -14.2977,0 -14.2977,0 -0.3898,23.02759 c -0.3824,22.58761 -0.4495,23.09142 -3.5148,26.36877 -5.0043,5.35047 -9.1342,6.85364 -18.8302,6.85364 -6.7727,0 -10.0893,-0.63782 -13.6122,-2.61782 -8.18621,-4.6009 -8.80761,-6.833 -8.80761,-31.63754 l 0,-21.99464 -14.2977,0 -14.2977,0 -0.3898,23.02759 c -0.38235,22.58761 -0.44951,23.09142 -3.5148,26.36877 -4.99273,5.33812 -9.13887,6.85364 -18.75,6.85364 -9.61112,0 -13.75726,-1.51552 -18.75,-6.85364 -3.06528,-3.27735 -3.13245,-3.78116 -3.5148,-26.36877 l -0.3898,-23.02759 -14.2204,0 -14.2204,0 -0.3898,23.02759 c -0.38235,22.58761 -0.44951,23.09142 -3.5148,26.36877 -4.99273,5.33812 -9.13887,6.85364 -18.75,6.85364 -9.61112,0 -13.75726,-1.51552 -18.75,-6.85364 -3.06528,-3.27735 -3.13245,-3.78116 -3.5148,-26.36877 l -0.3898,-23.02759 -14.2977,0 -14.2977,0 0,21.99464 c 0,24.80454 -0.6214,27.03664 -8.8076,31.63754 -3.52292,1.98 -6.8395,2.61782 -13.61216,2.61782 -9.696,0 -13.82595,-1.50317 -18.83024,-6.85364 -3.06528,-3.27735 -3.13245,-3.78116 -3.5148,-26.36877 l -0.3898,-23.02759 -14.2977,0 -14.2977,0 0,22.03996 c 0,24.82733 -0.99212,28.27333 -9.27111,32.20197 -6.30104,2.99003 -21.42926,2.71491 -26.67781,-0.48518 z M 595.2591,614.61376 c 7.7918,-3.6284 13.9562,-9.67753 17.3636,-17.03891 l 2.6102,-5.63903 0,-236.25 0,-236.25 -3.5037,-7.13489 c -1.9937,-4.05993 -5.5814,-8.78045 -8.3246,-10.95311 -10.1989,-8.077688 7.6894,-7.536998 -249.35619,-7.536998 -257.375077,0 -239.93085,-0.52808 -249.74357,7.560388 -2.49592,2.05735 -6.120667,6.96353 -8.054997,10.90262 l -3.51695,7.16199 -0.33078,232.5 c -0.23235,163.31448 0.0722,234.44946 1.02377,239.05121 2.04809,9.90537 8.026597,17.66669 17.340307,22.51129 l 7.81013,4.0625 235.20329,-0.0125 235.20329,-0.0125 6.2762,-2.92264 z M 480.5574,593.751 c -14.954,-1.74162 -25.5097,-6.03718 -38.1088,-15.50809 -18.2108,-13.68935 -26.3463,-30.20904 -51.84944,-105.28471 -10.36264,-30.50528 -19.11262,-55.1927 -19.44438,-54.86094 -0.33176,0.33176 -15.37507,39.01866 -33.42957,85.97089 l -32.82639,85.36767 -65.74371,0.32354 -65.74373,0.32354 1.11658,-2.82354 c 0.61411,-1.55295 32.10208,-76.74054 69.97326,-167.08353 37.87117,-90.343 68.84795,-165.1555 68.83729,-166.25 -0.0395,-4.05302 -9.56489,-19.51358 -13.81805,-22.42788 -4.09749,-2.80763 -5.00797,-2.91017 -20.53757,-2.31285 -11.84973,0.45578 -22.14611,1.84366 -38.02413,5.12537 -11.97579,2.47519 -21.96017,4.50035 -22.1875,4.50035 -0.22735,0 -0.41337,-24.44492 -0.41337,-54.32206 l 0,-54.32208 8.4375,-2.5055 c 14.33075,-4.2555 24.14802,-6.21091 44.79555,-8.92241 21.54849,-2.82981 36.0081,-2.65 57.39195,0.71374 38.46798,6.05112 65.74394,28.34029 87.17051,71.23331 10.4826,20.98471 13.0803,28.13119 54.557,150.09065 46.4532,136.59251 47.4254,139.41079 48.9084,141.78435 0.9341,1.49516 4.7234,-1.66671 18.7053,-15.60825 l 17.5338,-17.48326 0,66.45706 0,66.45705 -7.1875,2.10234 c -32.4396,9.48856 -48.0098,11.60654 -68.113,9.26524 z m 26.3004,-55.25268 c 0.2573,-4.9346 -0.091,-7.1875 -1.1131,-7.1875 -3.8066,0 -13.3029,-6.25222 -18.7089,-12.31756 -3.2838,-3.6844 -7.9838,-10.71709 -10.4443,-15.62818 -2.4605,-4.9111 -23.7988,-65.74176 -47.4183,-135.17926 -23.61961,-69.4375 -44.51104,-130.1875 -46.42547,-135 -12.82082,-32.22929 -27.67854,-52.78174 -44.21435,-61.16107 -10.0594,-5.09748 -26.57237,-7.39783 -46.42549,-6.4673 -9.28125,0.43502 -18.70312,1.12758 -20.9375,1.53903 -3.95902,0.72903 -4.06248,0.91163 -4.06217,7.16872 l 3.2e-4,6.42062 17.18718,0.0685 c 21.68682,0.0864 30.19571,2.16528 42.07782,10.28029 14.05342,9.59792 23.28209,23.35026 34.36633,51.2118 l 5.09647,12.81056 -59.84401,142.81444 -59.844,142.81442 12.51759,0.35803 c 6.88467,0.19691 12.75427,0.12137 13.04357,-0.16795 1.41635,-1.41636 66.02462,-171.38935 81.68899,-214.90943 9.84265,-27.34563 18.28695,-49.28313 18.76514,-48.75 1.61011,1.79519 37.59365,102.93653 60.10268,168.93465 12.28,36.00592 24.7859,70.59967 27.7909,76.875 9.0763,18.95412 15.9234,23.41943 35.1757,22.93992 l 11.25,-0.28022 0.3749,-7.1875 z"
     id="path4498"
     inkscape:connector-curvature="0" />
</svg>
